<?xml version="1.0" encoding="utf-8"?>
<!-- Generator: Adobe Illustrator 19.0.0, SVG Export Plug-In . SVG Version: 6.00 Build 0)  -->
<svg version="1.1" id="Layer_1" xmlns="http://www.w3.org/2000/svg" xmlns:xlink="http://www.w3.org/1999/xlink" x="0px" y="0px"
	 viewBox="0 0 612 792" style="enable-background:new 0 0 612 792;" xml:space="preserve">
<style type="text/css">
	.st0{fill:#11143C;}
	.st1{fill:#FFFFFF;}
	.st2{fill:#2B85C4;}
	.st3{fill:#EA3333;}
</style>
<g id="XMLID_61_">
	<g id="XMLID_75_">
		<path id="XMLID_16_" class="st0" d="M304.8,703.3c-5.6-5.2-11.1-15.3-14.5-22.2c-1.3,7.1-2.2,13.6-2,14.9l0.9,6.2l-4.9-3.8
			c-9.5-7.5-16.7-23.9-20.3-33.6c-0.9,3.7-1.3,6.7-0.9,7.7l3,7.3l-6.6-4.3c-11.4-7.3-19.3-17.9-23.1-23.9c-0.7,2.2-1.2,4.7-1,6.5
			l1.1,10.2l-5.6-8.6c-9.5-14.5-14.8-35.3-16.9-44.8c-2.4,3.1-4.8,6.6-5.1,8.8l-0.8,5.7l-3.6-4.4c-22.7-27.6-30.4-77.5-31.8-88.3
			c-1.1,0.3-3.2,1.5-6.3,5.3l-3.6,4.4l-0.8-5.6c-4.3-29.1-0.9-59.7,0.9-72.2c-0.2,0.2-0.4,0.4-0.7,0.7l-4.5,4.3l0.3-6.3
			c0.5-10.7,15-52.7,17.3-59.4c-1.6-4.6-8.9-26-9.8-45.4c-0.7-15.5,2.2-28.7,7.6-34.3c1.9-1.9,4-3,6.3-3c0.7,0,1.4,0.1,2.1,0.3
			c3.7,1.1,7,3,9.5,4.9l-0.3-2.8c-3.3-1.4-10.8-5-14.1-9.2c-4.1-5.2-8.6-41.1-5.7-46.2c1.2-2.2,3.3-4.6,5.1-6.4
			c-22.7-5.3-107-25.3-116.7-35.1C28.5,200.6,64,94.2,65.5,89.7l3.7-10.9l1.2,11.5c0.1,0.8,8.2,81.3,11.4,93.3
			c1.6,4.8,11.3,14.3,57.4,24.2c22.5,4.8,44.5,7.7,51.3,8.6c2.8-9.4,16.8-46,69.3-69l3-1.3l0.5,3.3c1.3,9.7,2.2,17,2.8,22.3
			c0.4,3.6,0.7,6.3,1,8.3c18.4-8.9,36.9-9.2,39-9.2l0.5,0c2.2,0,20.6,0.3,38.9,9.2c0.3-2,0.6-4.7,1-8.3c0.6-5.3,1.5-12.6,2.8-22.3
			l0.4-3.3l3,1.3c52.5,22.9,66.5,59.6,69.4,69.1c6.8-0.8,28.9-3.7,51.3-8.6c46.1-9.9,55.8-19.4,57.4-24.2
			c3.2-12,11.3-92.5,11.4-93.3l1.2-11.9l3.7,11.4c1.4,4.5,35.1,110.3,6.4,141c-9.7,9.9-94,29.9-116.7,35.2c1.8,1.8,3.8,4.2,5.1,6.4
			c2.8,5.2-1.6,41-5.7,46.2c-3.3,4.2-10.9,7.8-14.1,9.2l-0.3,2.7c2.5-1.8,5.8-3.8,9.5-4.9c0.7-0.2,1.4-0.3,2.1-0.3
			c2.2,0,4.4,1,6.3,3c5.4,5.7,8.3,18.8,7.6,34.4c-0.9,19.4-8.2,40.8-9.8,45.4c2.3,6.7,16.9,48.6,17.3,59.4l0.3,6.3l-4.5-4.3
			c-0.2-0.2-0.5-0.4-0.7-0.7c1.8,12.5,5.1,43.1,0.9,72.2l-0.8,5.6l-3.6-4.4c-3.1-3.8-5.2-4.9-6.3-5.3c-1.4,10.8-9.1,60.7-31.8,88.3
			l-3.6,4.4l-0.8-5.7c-0.3-2.2-2.6-5.7-5.1-8.8c-2.1,9.6-7.3,30.4-16.9,44.8l-5.6,8.6l1.1-10.2c0.2-1.8-0.4-4.3-1-6.5
			c-3.9,6-11.7,16.5-23.1,23.9l-6.6,4.3l3-7.3c0.4-0.9,0-3.9-0.9-7.7c-3.6,9.7-10.7,26-20.3,33.6l-5,4l1-6.3c0.2-1.3-0.8-7.7-2-14.8
			c-3.3,6.9-8.8,17-14.3,22.1l-1.7,1.6L304.8,703.3z"/>
		<path id="XMLID_13_" class="st1" d="M544.9,90.5c0,0,35,108.5,7,138.5c-10.3,10.5-120,35.5-120,35.5s5.7,4.8,8,9
			s-1.8,38.8-5.5,43.5s-14.5,9-14.5,9l-1,10.5c0,0,5.7-6.3,13.3-8.5c0.5-0.1,1-0.2,1.4-0.2c6.9,0,12.3,14.8,11.4,34.7
			c-1,21.3-10,45.5-10,45.5s17,48.3,17.5,59.5c-4-3.9-5.3-4.3-5.7-4.3c-0.1,0-0.1,0-0.1,0s7.3,39.6,1.8,77.3
			c-4.4-5.4-7.4-6.3-9.1-6.3c-1,0-1.4,0.3-1.4,0.3s-6.7,58.8-31.5,89c-0.7-5.2-9-14-9-14s-5.2,30.3-17.5,49c0.5-4.8-3-12.5-3-12.5
			s-9,17.2-25,27.5c1.5-3.7-3-17-3-17s-8.7,29.5-22,40c0.5-3.2-3.5-23.5-3.5-23.5s-8.5,20.7-17,28.5c-8.5-7.9-17.2-28.5-17.2-28.5
			s-4,20.3-3.5,23.5c-13.3-10.5-22-40-22-40s-4.5,13.3-3,17c-16-10.3-25-27.5-25-27.5s-3.5,7.7-3,12.5c-12.3-18.7-17.5-49-17.5-49
			s-8.3,8.8-9,14c-24.8-30.2-31.5-89-31.5-89s-0.5-0.3-1.4-0.3c-1.6,0-4.7,1-9.1,6.3c-5.5-37.6,1.8-77.3,1.8-77.3s0-0.1-0.2-0.1
			c-0.4,0-1.6,0.5-5.6,4.4c0.5-11.2,17.5-59.5,17.5-59.5s-9-24.2-10-45.5c-0.9-19.9,4.4-34.7,11.4-34.7c0.5,0,1,0.1,1.4,0.2
			c7.6,2.2,13.3,8.5,13.3,8.5l-1-10.5c0,0-10.8-4.3-14.5-9c-3.7-4.7-7.8-39.3-5.5-43.5c2.3-4.2,8-9,8-9s-109.7-25-120-35.5
			c-29.9-29.4,7-138.5,7-138.5s8.2,81.7,11.5,93.8c7.5,22.8,113,34.8,113,34.8s9.6-43.7,68.5-69.5c2.9,21.1,3.5,30.5,4.5,34
			c18.8-10.1,38.8-10.4,40.8-10.4c0.1,0,0.2,0,0.2,0s0.1,0,0.3,0c2.6,0,22.2,0.3,40.7,10.4c1-3.5,1.6-12.9,4.5-34
			c58.9,25.7,68.5,69.5,68.5,69.5s105.5-12,113-34.8C536.7,172.2,544.9,90.5,544.9,90.5 M542.3,66.2L539.9,90
			c-2.3,22.5-8.7,82.8-11.3,92.8c-1,2.8-8.1,12.3-55.5,22.5c-20.5,4.4-40.7,7.2-49.1,8.3c-1.6-4.8-5.1-13-11.6-22.5
			c-9.3-13.5-26.9-32.4-58.5-46.1l-6.1-2.6l-0.9,6.5c-1.3,9.7-2.2,17-2.8,22.3c-0.2,1.8-0.4,3.5-0.6,4.9c-17.2-7.5-33.5-8-36.9-8
			c-0.2,0-0.3,0-0.3,0l-0.1,0c-2.1,0-19.1,0.2-37,8c-0.2-1.4-0.4-3.1-0.6-4.9c-0.6-5.3-1.5-12.6-2.8-22.3l-0.9-6.6l-6.1,2.7
			c-31.5,13.8-49.2,32.7-58.4,46.2c-6.6,9.5-10,17.7-11.6,22.4c-8.5-1.1-28.6-3.9-49.1-8.3c-47.4-10.2-54.5-19.7-55.5-22.5
			c-2.6-10-9.1-70.3-11.3-92.8l-2.3-23l-7.4,21.9c-0.4,1.1-9.4,28-14.9,58.9c-7.6,42.8-4.5,71.2,9.1,84.7c2,2.1,7.7,7.6,66.1,23
			c18.8,4.9,37.2,9.4,47.6,11.8c-1,1.2-1.9,2.5-2.6,3.7c-1.7,3.1-1.7,11.3-0.1,24.6c1.1,9.1,3.1,20.6,6,24.4c0.8,1,1.8,2,2.9,2.9
			c-1.8,0.3-4.1,1.3-6.2,3.6c-5.9,6.2-9,20-8.3,36.2c0.9,18.8,7.6,39.3,9.7,45.3c-3.3,9.6-16.7,48.5-17.2,59.3l-0.6,12.5l4.6-4.4
			c-1.8,15-3.6,40.7,0.1,65.8l1.6,11.2l7.2-8.7c1-1.2,1.8-2,2.5-2.7c2.4,16,10.8,60.1,31.8,85.7l7.3,8.9l1.5-11.4
			c0.1-0.7,0.6-1.8,1.4-3.1c2.7,10.9,7.8,27.8,16,40.2l11.3,17.1l-2.1-20.2c4.5,6.1,11.4,13.7,20.3,19.5l13,8.3
			c3.3,5.6,7.2,10.9,11.6,14.4l10,7.9l-2-12.5c0-1,0.3-3.5,0.8-6.9c3.3,5.9,7.4,12.3,11.5,16.2l3.4,3.1l3.4-3.1
			c4.1-3.8,8.2-10.1,11.4-16c0.5,3.2,0.8,5.7,0.8,6.7l-2,12.5l10-7.9c4.4-3.5,8.3-8.7,11.6-14.4l13-8.3c8.9-5.7,15.8-13.4,20.3-19.5
			l-2.1,20.2l11.3-17.1c8.2-12.4,13.3-29.4,16-40.2c0.8,1.3,1.3,2.4,1.4,3.1l1.5,11.4l7.3-8.9c21-25.6,29.4-69.7,31.8-85.7
			c0.7,0.6,1.5,1.5,2.5,2.7l7.2,8.7l1.6-11.2c3.7-25.2,1.8-50.8,0.1-65.8l4.5,4.4l-0.6-12.5c-0.5-10.8-13.9-49.7-17.2-59.3
			c2.1-6,8.8-26.5,9.7-45.3c0.8-16.2-2.4-30-8.3-36.2c-2.2-2.3-4.4-3.2-6.3-3.6c1.1-0.9,2.1-1.9,2.9-2.9c3-3.8,4.9-15.4,6-24.4
			c1.6-13.2,1.6-21.5-0.1-24.6c-0.7-1.3-1.6-2.5-2.6-3.7c10.4-2.5,28.8-6.9,47.6-11.8c58.8-15.5,64.1-21,66.2-23l0,0l0,0
			c12.7-13.6,15.5-42.2,8.3-84.7c-5.2-30.9-14.1-58.4-14.2-58.7L542.3,66.2L542.3,66.2z"/>
	</g>
	<path id="XMLID_74_" class="st1" d="M65.5,124c0,0,4.7,62.7,9.8,68.3C94,212.2,190.7,226,190.7,226c-2.1,10.3-4.2,33-4.2,33
		S75.2,236.6,63.1,220.1C49.5,192.8,65.5,124,65.5,124z"/>
	<path id="XMLID_73_" class="st1" d="M255,159.8l5.5,40.1c0,0-36.3,8.1-65,43.4C195.5,191.5,247.9,161.6,255,159.8z"/>
	<path id="XMLID_69_" class="st1" d="M272,267.3c0,0,2.7,11.2-5.3,12.4c-9.8,2.5-47.4,7.8-54.9,8.9c-7.4,1.1-4.3-16.2-4.3-16.2
		s1.3,11.2,5.8,10.5c4.4-0.7,47.8-8,52.7-9C270.9,273,272,267.3,272,267.3z"/>
	<path id="XMLID_68_" class="st2" d="M190.2,373.3l2-26.2c0,0-5.4-12.5-12.2-11.8c-6.8,0.7-5.6,42.5,3.9,60.3l3.5-11
		c0,0-12.2-33.9-5-35.7C189.5,347.1,190.2,373.3,190.2,373.3z"/>
	<path id="XMLID_67_" class="st2" d="M277.4,375.6c-24,2.7-56.2-0.2-62.8-1.5c-6.7-1.3,0.2,38.3,8.8,45.3
		C238.9,429.7,301.4,373,277.4,375.6z"/>
	<path id="XMLID_64_" class="st3" d="M266.7,367.1c1-5-22.5-19.8-34.5-18.8S215,358.1,215,364C215,369.8,265.7,372.1,266.7,367.1z"
		/>
	<path id="XMLID_70_" class="st1" d="M306.5,516.5c1.3-3.3,7.5-8,7.5-8s5.3,3.5,7.5,8c1.7-4.7,6-10.5,6-10.5s11.7,16.3,15.5,36
		c40-5.7,25.9-94,25.9-94s-36.1-15.8-37.9-19s0-10.5,0-10.5s5.8-1.7,8-6s53.2,20.5,61,30c1.2-23.7,12-91.5,12-91.5s-12-23.7-21-23.7
		s-59,15.5-66.3,15.2s-12.6-8.3-13.8-12.5c-1.2-4.2,4-14,4-14s4.5,16.7,12,13.5s53-32,66-32s22.2,29.5,22.2,29.5l-0.7,16.5l5,52.5
		c0,0,17.9,29.3,23,58c-3.5-3.3-7.8,1.5-7.8,1.5s11.3,45.8,7.8,67c-1.2-4.7-7.8-8.5-7.8-8.5s-14.5,71.8-28.7,87
		c-1.7-12.5-11.5-21-11.5-21s-2.3,37-13.5,49c1.3-4.7-0.5-9.5-0.5-9.5s-10.2,21.2-26,32.5c1.3-4.2-5-22-5-22s-3,33.9-18,44.5
		c1.5-3.7-4-24.5-4-24.5s-5.8,21.8-21,30c-15.2-8.2-21-30-21-30s-5.5,20.8-4,24.5c-15-10.6-18-44.5-18-44.5s-6.3,17.8-5,22
		c-15.8-11.3-26-32.5-26-32.5s-1.8,4.8-0.5,9.5c-11.2-12-13.5-49-13.5-49s-9.8,8.5-11.5,21c-14.2-15.2-28.7-87-28.7-87
		s-6.7,3.8-7.8,8.5c-3.5-21.2,7.8-67,7.8-67s-4.3-4.8-7.8-1.5c5.1-28.7,23-58,23-58l5-52.5l-0.7-16.5c0,0,9.2-29.5,22.2-29.5
		s58.5,28.8,66,32s12-13.5,12-13.5s5.2,9.8,4,14s-6.5,12.2-13.8,12.5s-57.3-15.2-66.3-15.2s-21,23.7-21,23.7s10.8,67.8,12,91.5
		c7.8-9.5,58.8-34.3,61-30s8,6,8,6s1.8,7.3,0,10.5s-37.9,19-37.9,19s-14.1,88.3,25.9,94c3.8-19.7,15.5-36,15.5-36s4.3,5.8,6,10.5
		c2.2-4.5,7.5-8,7.5-8S305.2,513.1,306.5,516.5z"/>
	<path id="XMLID_54_" class="st2" d="M244.1,448c0,0-28.7,12.4-32.3,52.5c13.8-37.9,31.3-45,31.3-45L244.1,448z"/>
	<path id="XMLID_53_" class="st2" d="M71.5,214c-15.3-15.8-6-90-6-90c-0.5,1.1-17.3,77.4-2.5,96.1S186.5,259,186.5,259l1-10
		C187.5,249,86.9,229.8,71.5,214z"/>
	<path id="XMLID_98_" class="st1" d="M547.5,124c0,0-4.7,62.7-9.8,68.3C519,212.2,422.3,226,422.3,226c2.1,10.3,4.2,33,4.2,33
		s111.4-22.3,123.5-38.9C563.6,192.8,547.5,124,547.5,124z"/>
	<path id="XMLID_97_" class="st1" d="M358,159.8l-5.5,40.1c0,0,36.3,8.1,65,43.4C417.5,191.5,365.2,161.6,358,159.8z"/>
	<path id="XMLID_72_" class="st1" d="M306.5,208.5c0,0,19.4,0,35.5,5.5l3.3-22.5c-19.4-9.3-38.8-8.7-38.8-8.7s-19.4-0.6-38.8,8.7
		L271,214C287.2,208.5,306.5,208.5,306.5,208.5z"/>
	<path id="XMLID_71_" class="st1" d="M306.5,252c13.5,0,114,7,117,26.8s-3,37.2-3,37.2s4.8,0,9-4c0,0,5.2-27.7,3-34.7
		c-6.5-24.3-102.6-33.7-126-33.7s-119.5,9.4-126,33.7c-2.2,7,3,34.7,3,34.7c4.3,4,9,4,9,4s-6-17.5-3-37.2
		C192.5,259.1,293,252,306.5,252z"/>
	<path id="XMLID_93_" class="st1" d="M341.1,267.3c0,0-2.7,11.2,5.3,12.4c9.8,2.5,47.4,7.8,54.9,8.9c7.4,1.1,4.3-16.2,4.3-16.2
		s-1.3,11.2-5.8,10.5c-4.5-0.7-47.8-8-52.7-9S341.1,267.3,341.1,267.3z"/>
	<path id="XMLID_92_" class="st2" d="M422.9,373.3l-2-26.2c0,0,5.4-12.5,12.2-11.8c6.8,0.7,5.6,42.5-3.9,60.3l-3.5-11
		c0,0,12.2-33.9,5-35.7C423.5,347.1,422.9,373.3,422.9,373.3z"/>
	<path id="XMLID_91_" class="st2" d="M335.7,375.6c24,2.7,56.2-0.2,62.8-1.5c6.7-1.3-0.2,38.3-8.8,45.3
		C374.2,429.7,311.7,373,335.7,375.6z"/>
	<path id="XMLID_66_" class="st2" d="M306.5,339.1l12.3,11l-2.1,36.5c0,0,14.3,10.1,14.3,21.3c0,5.7-10.3,4.5-10.3,4.5
		c-1,3.5-1.9,6-14.2,6s-13.2-2.5-14.2-6c0,0-10.3,1.2-10.3-4.5c0-11.3,14.3-21.3,14.3-21.3l-2.1-36.5L306.5,339.1z"/>
	<path id="XMLID_88_" class="st3" d="M346.4,367.1c-1-5,22.5-19.8,34.5-18.8s17.2,9.8,17.2,15.7C398,369.8,347.4,372.1,346.4,367.1z
		"/>
	<polygon id="XMLID_62_" class="st1" points="306.5,453.7 314.5,455.5 318.8,452.6 324.9,455.7 334.2,452.6 341.5,457.5 
		349.8,454.7 361.8,457.5 359,450.2 352,450.5 346.2,445.1 343.5,447.5 335.3,443.2 332,447.2 322.3,439.7 318.8,444.5 310.3,440.7 
		306.5,443.7 302.8,440.7 294.3,444.5 290.8,439.7 281,447.2 277.8,443.2 269.5,447.5 266.9,445.1 261,450.5 254,450.2 251.3,457.5 
		263.3,454.7 271.5,457.5 278.9,452.6 288.2,455.7 294.3,452.6 298.5,455.5 	"/>
	<polygon id="XMLID_63_" class="st1" points="306.5,466.2 311,469 313.3,463.5 322.5,470.5 328.8,465.5 336.5,471.7 344.3,465.5 
		352.5,470.2 352.5,465.5 357.5,469.7 357.5,465.5 364,471.7 361.8,460.5 360.5,462.7 356.3,459.5 352.8,461.7 349,459.5 
		341.3,461.2 333,456.2 328.3,458.7 321.3,457.5 313.5,459.2 306.5,457.5 299.5,459.2 291.8,457.5 284.8,458.7 280,456.2 
		271.8,461.2 264,459.5 260.3,461.7 256.8,459.5 252.5,462.7 251.3,460.5 249,471.7 255.5,465.5 255.5,469.7 260.5,465.5 
		260.5,470.2 268.8,465.5 276.5,471.7 284.3,465.5 290.5,470.5 299.8,463.5 302,469 	"/>
	<path id="XMLID_86_" class="st2" d="M306.5,476.3c0,0,38.2,0.8,57.5,0.2c0,0,1.7,25-2.3,31c0,0-4.6-14.8-10.5-18.8
		c0,0-5.8,6-44.8,6s-44.8-6-44.8-6c-5.9,3.9-10.5,18.8-10.5,18.8c-4-6-2.3-31-2.3-31C268.4,477.1,306.5,476.3,306.5,476.3z"/>
	<path id="XMLID_84_" class="st2" d="M442.5,454c-1.7-3.2-8.8-2.2-8.8-2.2l1.7,6.7C435.4,458.5,439.1,453.5,442.5,454z"/>
	<polygon id="XMLID_83_" class="st2" points="442.5,522.5 436.2,502.5 434.7,514 	"/>
	<path id="XMLID_82_" class="st2" d="M406,601c2.5-15.6-11.5-31.3-11.5-31.3V580C394.5,580,403.7,593.7,406,601z"/>
	<path id="XMLID_81_" class="st2" d="M381,629c2.4-4.2,3-17.8,3-17.8l-3.5,8.3C380.5,619.5,381.3,625.2,381,629z"/>
	<path id="XMLID_80_" class="st2" d="M354.5,652c0,0,3.4-16.5-4.6-31.1l-0.7,11.2C351.5,636.8,354.5,652,354.5,652z"/>
	<path id="XMLID_79_" class="st2" d="M331.5,674.5c4.2-14.1-1.1-36.9-1.1-36.9l-2.9,12.4C327.5,650,331.2,667.9,331.5,674.5z"/>
	<path id="XMLID_78_" class="st2" d="M369,448c0,0,28.7,12.4,32.3,52.5c-13.8-37.9-31.3-45-31.3-45L369,448z"/>
	<path id="XMLID_77_" class="st2" d="M541.5,214c15.3-15.8,6-90,6-90c0.5,1.1,17.3,77.4,2.5,96.1S426.5,259,426.5,259l-1-10
		C425.5,249,526.2,229.8,541.5,214z"/>
	<path id="XMLID_56_" class="st2" d="M258.5,652c0,0-3.4-16.5,4.6-31.1l0.7,11.2C261.5,636.8,258.5,652,258.5,652z"/>
	<path id="XMLID_55_" class="st2" d="M281.5,674.5c-4.2-14.1,1.1-36.9,1.1-36.9l2.9,12.4C285.5,650,281.9,667.9,281.5,674.5z"/>
	<path id="XMLID_57_" class="st2" d="M232,629c-2.4-4.2-3-17.8-3-17.8l3.5,8.3C232.5,619.5,231.7,625.2,232,629z"/>
	<path id="XMLID_58_" class="st2" d="M207,601c-2.5-15.7,11.5-31.3,11.5-31.3V580C218.5,580,209.4,593.7,207,601z"/>
	<polygon id="XMLID_59_" class="st2" points="170.5,522.5 176.9,502.5 178.4,514 	"/>
	<path id="XMLID_60_" class="st2" d="M170.5,454c1.7-3.2,8.8-2.2,8.8-2.2l-1.7,6.7C177.7,458.5,174,453.5,170.5,454z"/>
	<path id="XMLID_65_" class="st2" d="M288.2,342.5c0,0-55.2-26.5-62.7-26.5s-24.9,30.9-24.9,30.9l0.4,4.1c0,0,18.8-22.5,25.2-22
		S283,343.4,288.2,342.5z"/>
	<path id="XMLID_89_" class="st2" d="M324.9,342.5c0,0,55.2-26.5,62.7-26.5s24.9,30.9,24.9,30.9l-0.4,4.1c0,0-18.8-22.5-25.2-22
		C380.5,329.5,330,343.4,324.9,342.5z"/>
</g>
</svg>
